<mxfile host="app.diagrams.net" modified="2023-03-23T18:35:03.678Z" agent="Mozilla/5.0 (Macintosh; Intel Mac OS X 10_15_7) AppleWebKit/537.36 (KHTML, like Gecko) Chrome/111.0.0.0 Safari/537.36" version="21.1.0" etag="kXIxBEdhZBrP37dgVw58" type="github">
  <diagram name="PÃ¡gina-1" id="JuOAfucV5_PMYf_mpuIV">
    <mxGraphModel>
      <root>
        <mxCell id="0" />
        <mxCell id="1" parent="0" />
      </root>
    </mxGraphModel>
  </diagram>
</mxfile>
